<?xml version="1.0" encoding="utf-8"?>
<!-- Generator: Adobe Illustrator 21.1.0, SVG Export Plug-In . SVG Version: 6.00 Build 0)  -->
<svg version="1.1" id="Layer_1" xmlns="http://www.w3.org/2000/svg" xmlns:xlink="http://www.w3.org/1999/xlink" x="0px" y="0px"
	 viewBox="0 0 230 150" style="enable-background:new 0 0 230 150;" xml:space="preserve">
<style type="text/css">
	.st0{fill:#44A36F;}
	.st1{fill:none;stroke:#44A36F;stroke-width:10;stroke-miterlimit:10;}
</style>
<g id="Layer_1_1_">
</g>
<g id="top-lid">
	<g>
		<g>
			<path class="st0" d="M26.4,93.1c9.1-12.9,20.7-25.8,33-34.3c2.9-2,6-3.9,9.1-5.6c1.5-0.8,3.1-1.6,4.6-2.4
				c1.5-0.7,3.5-1.6,3.6-1.7c6.5-2.6,13.3-4.5,20.2-5.7c2.6-0.5,4.5-0.7,8.3-1c3.6-0.3,7.3-0.4,10.9-0.3c2.8,0,5.6,0.2,8.4,0.4
				c1.5,0.1,3.1,0.3,4.6,0.4c2.4,0.2,0.8,0.1,0.3,0c1.2,0.2,2.3,0.4,3.5,0.6c14,2.4,25.3,6.4,36.8,13.4c13.9,8.5,25,21.1,32.9,36.2
				c3,5.7,11,7.5,16.4,4.3c5.8-3.4,7.3-10.7,4.3-16.4c-16.2-30.9-45.2-52.5-79.3-59.8c-31.2-6.6-64.9-3.1-92.3,13.9
				C33,46.7,18.2,63.1,5.5,81c-3.7,5.3-0.9,13.3,4.3,16.4C16,100.9,22.6,98.4,26.4,93.1L26.4,93.1z"/>
		</g>
	</g>
	<circle class="st1" cx="114" cy="59" r="22"/>
	<g>
		<g>
			<path class="st0" d="M197.8,73.9c-16.6,22.1-38.4,39.4-66.1,43.9c-22.9,3.7-48.1-0.1-68.3-11.8c-13.3-7.6-23.8-18.7-31.2-32
				c-3.8-6.7-14.1-0.7-10.4,6.1c14.3,25.7,39.3,42.7,68,48.5c26.6,5.3,55.1,2.5,78.8-11.3c15.9-9.3,28.6-22.6,39.6-37.2
				C212.8,73.8,202.4,67.8,197.8,73.9L197.8,73.9z"/>
		</g>
	</g>
</g>
<g id="btm-lid">
</g>
<g id="Layer_4">
</g>
</svg>
