<?xml version="1.0" encoding="utf-8"?>
<!-- Generator: Adobe Illustrator 21.1.0, SVG Export Plug-In . SVG Version: 6.00 Build 0)  -->
<svg version="1.1" id="Layer_1" xmlns="http://www.w3.org/2000/svg" xmlns:xlink="http://www.w3.org/1999/xlink" x="0px" y="0px"
	 viewBox="0 0 480 480" style="enable-background:new 0 0 480 480;" xml:space="preserve">
<style type="text/css">
	.st0{fill:#E2C08D;}
</style>
<g transform="translate(0.000000,480.000000) scale(0.100000,-0.100000)">
	<path class="st0" d="M2120,4685c-233-26-454-90-685-198C739,4163,251,3512,129,2745c-21-128-18-574,5-709c36-218,105-429,214-656
		C554,954,954,554,1380,348c227-109,438-178,656-214c135-23,581-26,709-5c448,71,891,283,1203,575c245,229,408,451,539,731
		c147,316,213,614,213,970c0,380-74,692-244,1034c-107,214-231,386-415,574c-320,327-720,548-1166,643
		C2680,4698,2350,4710,2120,4685z M2595,4580c241-22,528-99,740-199c206-97,452-270,614-432s335-408,432-614
		c153-326,228-727,201-1078c-54-710-425-1329-1022-1702c-158-100-300-167-466-221c-457-149-910-150-1369-3c-309,99-630,295-864,530
		c-235,234-431,555-530,864c-94,295-128,593-100,881c66,680,440,1287,1014,1646c164,103,299,167,471,223
		C2010,4571,2304,4607,2595,4580z"/>
	<path class="st0" d="M2161,3169c-329-22-704-104-973-213c-84-34-302-142-388-192c-126-74-285-202-375-304c-56-63-57-62,75-190
		c274-268,687-470,1185-579c586-128,1180-100,1761,83c400,126,794,365,950,578c34,46,36,51,23,76c-20,38-193,210-264,262
		c-149,110-416,245-603,306C3097,3144,2641,3201,2161,3169z M1848,2922c-120-125-208-345-208-522c0-180,88-398,213-527
		c48-51,44-52-79-27c-270,55-579,166-786,282c-111,61-272,174-343,238l-40,36l50,44c74,66,266,193,380,251c123,63,301,133,454,179
		c116,35,382,94,390,87C1882,2961,1868,2943,1848,2922z M2562,2946c99-30,162-69,243-151c121-121,168-231,168-395s-47-274-168-395
		c-122-123-232-169-400-168c-157,0-266,45-382,156c-125,120-177,238-176,407c0,160,43,268,152,384c93,97,195,154,314,176
		C2378,2971,2500,2964,2562,2946z M3041,2951c383-71,738-208,972-375c106-76,197-153,197-168c0-36-246-215-420-307
		c-188-98-459-193-703-246c-166-36-169-35-118,20s120,163,148,230c42,101,57,175,57,295s-15,194-57,295c-28,67-97,175-148,230
		c-23,25-40,45-37,45C2934,2970,2983,2961,3041,2951z"/>
</g>
</svg>
