<?xml version="1.0" encoding="utf-8"?>
<!-- Generator: Adobe Illustrator 21.1.0, SVG Export Plug-In . SVG Version: 6.00 Build 0)  -->
<svg version="1.1" id="Layer_1" xmlns="http://www.w3.org/2000/svg" xmlns:xlink="http://www.w3.org/1999/xlink" x="0px" y="0px"
	 viewBox="0 0 480 480" style="enable-background:new 0 0 480 480;" xml:space="preserve">
<style type="text/css">
	.st0{fill:#44A36F;}
</style>
<g>
	<path class="st0" d="M212,11.5c-23.3,2.6-45.4,9-68.5,19.8C73.9,63.7,25.1,128.8,12.9,205.5c-2.1,12.8-1.8,57.4,0.5,70.9
		c3.6,21.8,10.5,42.9,21.4,65.6c20.6,42.6,60.6,82.6,103.2,103.2c22.7,10.9,43.8,17.8,65.6,21.4c13.5,2.3,58.1,2.6,70.9,0.5
		c44.8-7.1,89.1-28.3,120.3-57.5c24.5-22.9,40.8-45.1,53.9-73.1c14.7-31.6,21.3-61.4,21.3-97c0-38-7.4-69.2-24.4-103.4
		c-10.7-21.4-23.1-38.6-41.5-57.4c-32-32.7-72-54.8-116.6-64.3C268,10.2,235,9,212,11.5z M259.5,22c24.1,2.2,52.8,9.9,74,19.9
		c20.6,9.7,45.2,27,61.4,43.2c16.2,16.2,33.5,40.8,43.2,61.4c15.3,32.6,22.8,72.7,20.1,107.8c-5.4,71-42.5,132.9-102.2,170.2
		c-15.8,10-30,16.7-46.6,22.1c-45.7,14.9-91,15-136.9,0.3c-30.9-9.9-63-29.5-86.4-53c-23.5-23.4-43.1-55.5-53-86.4
		c-9.4-29.5-12.8-59.3-10-88.1c6.6-68,44-128.7,101.4-164.6c16.4-10.3,29.9-16.7,47.1-22.3C201,22.9,230.4,19.3,259.5,22z"/>
	<path class="st0" d="M201.8,139.2l-0.3,62.3l-61.7,0.3L78,202v38v38l61.8,0.2l61.7,0.3l0.3,62.2L202,403h38.5H279v-62.5V278h62.5
		H404v-38v-38h-62.5H279v-62.5V77h-38.5H202L201.8,139.2z"/>
</g>
</svg>
