<?xml version="1.0" encoding="utf-8"?>
<!-- Generator: Adobe Illustrator 21.1.0, SVG Export Plug-In . SVG Version: 6.00 Build 0)  -->
<svg version="1.1" id="Bubbleshieldhud_xA0_Image_1_"
	 xmlns="http://www.w3.org/2000/svg" xmlns:xlink="http://www.w3.org/1999/xlink" x="0px" y="0px" viewBox="0 0 739 836"
	 style="enable-background:new 0 0 739 836;" xml:space="preserve">
<style type="text/css">
	.st0{fill:none;}
	.st1{fill:#D13B2E;}
</style>
<g>
	<g>
		<path d="M1,0c246,0,492,0,738,0c0,278.7,0,557.3,0,836c-246.3,0-492.7,0-739,0C0,558.3,0,280.7,0,3C-0.1,1.6-0.2,0.2,1,0z M1,4
			c0,277,0,554,0,831c245.7,0,491.3,0,737,0c0-278,0-556,0-834C492.7,1,247.3,1,2,1C0.8,1.2,0.9,2.6,1,4z"/>
		<path class="st0" d="M2,1c245.3,0,490.7,0,736,0c0,278,0,556,0,834c-245.7,0-491.3,0-737,0C1,558,1,281,1,4C0.9,2.6,0.8,1.2,2,1z
			 M364,8c-58.3,30.7-118.2,67.5-179,102c-43,24.3-88,50.2-132,76c-8,4.7-40.4,19.6-43,27c-3.6,10.1,0,34.3,0,50
			c0,121.6,0,237.4,0,356c117,69.3,235.8,136.9,354,205c116.5-69.8,237.4-135.3,353-206c0-135.3,0-270.7,0-406
			C600.1,143.2,482.1,75.6,364,8z"/>
		<path class="st1" d="M717,212c0,135.3,0,270.7,0,406c-115.6,70.7-236.5,136.2-353,206C245.8,755.9,127,688.3,10,619
			c0-118.6,0-234.4,0-356c0-15.7-3.6-39.9,0-50c2.6-7.4,35-22.3,43-27c44-25.8,89-51.7,132-76C245.8,75.5,305.7,38.7,364,8
			C482.1,75.6,600.1,143.2,717,212z M91,260c0,104,0,208,0,312c90.8,52.5,180.8,105.9,273,157c90.1-52.9,182.7-103.3,271-158
			c0-104,0-208,0-312c-90.4-53-180.5-106.2-273-157C272.1,155.1,179.5,205.5,91,260z"/>
		<path class="st0" d="M362,102c92.5,50.8,182.6,104,273,157c0,104,0,208,0,312c-88.3,54.7-180.9,105.1-271,158
			c-92.2-51.1-182.2-104.5-273-157c0-104,0-208,0-312C179.5,205.5,272.1,155.1,362,102z M259,235c-32.7,17.9-66.5,33.5-97,54
			c32.3,161.3,101.4,285.9,196,385c99.6-97.8,169.1-225.6,206-386c-67.3-37.1-136.1-72.6-205-108C325.4,197.3,292.2,216.8,259,235z"
			/>
		<path class="st1" d="M359,180c68.9,35.4,137.7,70.9,205,108c-36.9,160.4-106.4,288.2-206,386c-94.6-99.1-163.7-223.7-196-385
			c30.5-20.5,64.3-36.1,97-54C292.2,216.8,325.4,197.3,359,180z"/>
	</g>
</g>
</svg>
